<?xml version="1.0" encoding="utf-8"?>
<!-- Generator: Adobe Illustrator 21.1.0, SVG Export Plug-In . SVG Version: 6.00 Build 0)  -->
<svg version="1.1" id="Layer_1" xmlns="http://www.w3.org/2000/svg" xmlns:xlink="http://www.w3.org/1999/xlink" x="0px" y="0px"
	 width="26px" height="26px" viewBox="0 0 26 26" style="enable-background:new 0 0 26 26;" xml:space="preserve">
<style type="text/css">
	.st0{fill:#C2C1C0;}
</style>
<g>
	<path class="st0" d="M13,26c7.2,0,13-5.8,13-13c0-7.2-5.8-13-13-13C5.8,0,0,5.8,0,13C0,20.2,5.8,26,13,26L13,26z M13,1.8
		c6.2,0,11.2,5,11.2,11.2c0,6.2-5,11.2-11.2,11.2S1.8,19.1,1.8,13C1.8,6.8,6.8,1.8,13,1.8L13,1.8z M13,1.8"/>
	<path class="st0" d="M14.2,19.5c0.2,0.2,0.4,0.3,0.6,0.3c0.2,0,0.5-0.1,0.6-0.3c0.4-0.4,0.4-0.9,0-1.3l-5.3-5.3l5.3-5.3
		c0.4-0.4,0.4-0.9,0-1.3c-0.4-0.4-0.9-0.4-1.3,0l-5.9,5.9C8.1,12.5,8,12.7,8,12.9s0.1,0.5,0.3,0.6L14.2,19.5z M14.2,19.5"/>
</g>
</svg>
